<?xml version="1.0" encoding="UTF-8"?>
<svg id="Ebene_1" xmlns="http://www.w3.org/2000/svg" version="1.1" viewBox="0 0 397.6 159.2">
  <!-- Generator: Adobe Illustrator 29.7.1, SVG Export Plug-In . SVG Version: 2.1.1 Build 8)  -->
  <defs>
    <style>
      .st0 {
        fill: #9d1734;
      }

      .st1 {
        fill: #1d1d1b;
      }

      .st2 {
        fill: #b1b1b1;
      }
    </style>
  </defs>
  <g>
    <path class="st0" d="M151.2,58.4v1.6c0,2.5.6,4.4,1.8,5.8,1.2,1.4,2.8,2.1,4.8,2.1s4.2-.5,6.4-1.5c2.2-1,4.4-2.3,6.6-3.9,2.2-1.6,4.9-3.7,8-6.4v3.9c-4.8,5.7-9.2,10.1-13.4,13.2-4.2,3.1-8.4,4.6-12.7,4.6s-6.7-1.5-8.9-4.4c-2.2-2.9-3.3-6.9-3.3-11.9s1-8.4,3.1-12c2.1-3.6,5.4-7.4,10.1-11.4,3.2-2.7,6.4-4.8,9.5-6.2,3.2-1.4,6-2.1,8.5-2.1s3.5.5,4.7,1.4c1.2.9,1.7,2.3,1.7,4.1,0,2.7-1,5.3-3,7.9-2,2.6-5,5.2-9.1,7.8-4.1,2.6-9.1,5.1-15,7.5ZM151.9,54.3c3.8-1.5,7-3.3,9.7-5.5,2.7-2.2,4.7-4.3,6-6.3,1.3-2,1.9-3.5,1.9-4.4s-.4-1.5-1.3-1.5-2,.5-3.7,1.5c-1.7,1-3.4,2.2-5.2,3.8-1.7,1.6-3.3,3.4-4.7,5.5-1.4,2.1-2.3,4.4-2.7,6.9Z"/>
    <path class="st0" d="M209.1,55.4v4.7c-8.8,11.7-16,17.5-21.5,17.5s-5.3-1.6-7-4.9c-1.7-3.3-2.6-7.5-2.6-12.9s1-9.4,3-15.3c2-5.9,4.7-11.9,8.1-18,3.4-6.1,6.9-11.4,10.5-15.9,3.6-4.5,7-7.7,10.1-9.5,1.3-.8,2.3-1.1,3-1.1s1.5.4,1.8,1.2c.3.8.4,2.1.4,4,0,5.9-2.4,13-7.1,21.6-4.8,8.5-11.4,17.2-19.9,26.1-.4,2.2-.6,3.9-.6,5.1,0,2.7.6,4.9,1.7,6.6,1.2,1.7,2.8,2.5,4.8,2.5s2.2-.4,3.4-1.2c1.2-.8,2.5-1.8,3.9-3.1,1.3-1.2,4-3.6,7.9-7.3ZM190.2,44.1c2.2-2.1,4.3-4.6,6.3-7.3,2-2.7,4-5.7,5.8-8.8,1.8-3.1,3.2-5.9,4.3-8.4,1-2.5,1.5-4.4,1.5-5.6s-.3-1.5-1-1.5-.7.2-1.5.7c-2.6,2.1-5.5,6.2-8.7,12.3-3.2,6.1-5.5,12.3-6.8,18.5Z"/>
    <path class="st0" d="M215.9,44.8c6.4-5.8,12.6-10.1,18.6-12.9,6-2.8,10.7-4.2,14-4.2s1.7.4,2.5,1.1c.8.7,1.4,1.6,1.8,2.6.4,1,.7,1.7.7,2.1,0,.8-.3,1.3-.9,1.7-.6.4-1.6.8-3.1,1.3.3.7.7,1.5,1.1,2.6.5,1.1.8,1.9,1.1,2.6.3.7.4,1.2.4,1.7,0,1-1,2.9-3.1,5.7-2,2.8-3.5,4.8-4.3,6.1-.8,1.3-1.2,2.9-1.2,4.8,0,3.1,1.4,4.7,4.3,4.7s7.6-2.8,13.8-8.3v3.9c-10.7,11.8-18.3,17.7-22.9,17.7s-2.8-.5-3.5-1.6c-.7-1.1-1-2.7-1-4.8,0-3.3,1.2-8.1,3.6-14.5-6.1,6.8-10.7,11.7-13.7,14.6-3,2.9-5.5,4.3-7.4,4.3s-2.1-.8-3.5-2.4c-1.4-1.6-2.6-3.7-3.7-6.2-1.1-2.5-1.6-5.2-1.6-7.9s.2-3.6.6-5c.4-1.3,1.1-2.7,2.2-4.1,1.1-1.4,2.8-3.2,5.2-5.5ZM246.2,37.9c-10.9,5-18.7,9.3-23.4,12.8-4.7,3.5-7,7.1-7,10.8s.2,2.5.7,3.3c.5.9,1.1,1.3,1.9,1.3s1.3-.3,2.5-.9c4.4-2.6,8.5-6,12.1-10.2,3.7-4.2,8.1-9.9,13.2-17.1Z"/>
  </g>
  <path class="st1" d="M77,158.5v-31.9h10.9c2.3,0,4.4.4,6.5,1.3,2,.8,3.7,1.9,5.3,3.4s2.7,3.2,3.6,5.1c.9,2,1.3,4,1.3,6.2s-.4,4.2-1.3,6.2c-.8,1.9-2,3.6-3.6,5-1.5,1.5-3.3,2.6-5.3,3.4-2.1.8-4.2,1.3-6.5,1.3h-10.9ZM88,156c3.8,0,7.1-1.3,9.9-3.9,2.7-2.6,4.1-5.8,4.1-9.5s-1.4-6.9-4.1-9.5c-2.8-2.6-6-3.9-9.9-3.9h-8.6v26.9h8.6Z"/>
  <path class="st1" d="M145.6,156v2.5h-19.3v-31.9h19.3v2.5h-16.7v12.1h13.5v2.5h-13.5v12.3h16.7Z"/>
  <path class="st1" d="M178.9,159.2c-2.7,0-5.2-.6-7.4-1.9-2.7-1.5-4.4-3.4-5.1-5.8l2.4-.7c.6,1.8,1.9,3.3,4,4.5,1.7,1,3.8,1.4,6,1.4s.7,0,.9,0c.3,0,.6,0,.9-.1,1-.2,1.9-.4,2.7-.8,2.5-1.1,3.8-2.9,4-5.5.1-1.4-.3-2.6-1.3-3.7-1.5-1.6-3.8-2.5-6.9-2.7-4.9-.3-8.4-1.4-10.5-3.2-1.6-1.3-2.4-3.1-2.4-5.2s1.2-5.2,3.6-7c2.2-1.6,4.8-2.4,8-2.4s6.8,1.3,9.2,3.8c.8.8,1.5,1.7,2,2.7.2.3.3.6.4.8l-2.4.9c0-.1-.2-.4-.6-.9-.3-.5-.8-1.1-1.4-1.7-2-2-4.4-3-7.4-3s-1.8.1-2.7.3c-1.1.2-2,.6-2.9,1-2.3,1.3-3.4,3.1-3.4,5.6,0,3.5,3.5,5.5,10.5,6,3.8.2,6.7,1.4,8.6,3.6,1.4,1.6,2.1,3.4,1.9,5.5-.2,2.8-1.5,5-3.8,6.6-2,1.4-4.4,2.1-7.3,2.1h0Z"/>
  <path class="st1" d="M212.2,158.5v-31.9h2.6v31.9h-2.6Z"/>
  <path class="st1" d="M271.6,143.1c0,1.9-.5,3.8-1.4,5.9-.9,2-2.1,3.8-3.7,5.3-1.6,1.5-3.4,2.7-5.5,3.5-2.1.9-4.4,1.3-6.7,1.3s-4.6-.4-6.7-1.3c-2.1-.8-3.9-2-5.5-3.5-1.6-1.5-2.8-3.3-3.7-5.3-.9-2-1.4-4.2-1.4-6.4s.5-4.4,1.4-6.5c.9-2,2.1-3.7,3.7-5.3,1.6-1.5,3.4-2.7,5.5-3.5,2.1-.9,4.4-1.3,6.7-1.3,3.7,0,7.1,1,10.1,3.1,2.9,2,4.9,4.4,5.9,7.2h-3c-1.1-2.2-2.8-4-5.1-5.4-2.4-1.5-5-2.2-7.9-2.2s-7.4,1.4-10.3,4.1c-2.8,2.7-4.2,6-4.2,9.9s1.4,7.1,4.2,9.9c2.8,2.7,6.3,4.1,10.3,4.1s6.2-.9,8.8-2.8c2.5-1.9,4.3-4.5,5.4-7.9h-13.5v-2.6h16.6Z"/>
  <path class="st1" d="M293.3,126.8l24.7,25.2v-25.4h2.6v31.7l-24.7-25.2v25.5h-2.6v-31.7Z"/>
  <g>
    <polygon class="st2" points="57.3 144.8 0 144.8 0 52.4 121.2 52.4 121.2 55.1 2.7 55.1 2.7 142 57.3 142 57.3 144.8"/>
    <polygon class="st2" points="397.6 144.8 340.2 144.8 340.2 142 394.8 142 394.8 55.1 276.4 55.1 276.4 52.4 397.6 52.4 397.6 144.8"/>
  </g>
</svg>