<?xml version="1.0" encoding="UTF-8"?>
<svg id="Ebene_1" xmlns="http://www.w3.org/2000/svg" version="1.1" viewBox="0 0 15.6 21.9">
  <!-- Generator: Adobe Illustrator 29.7.1, SVG Export Plug-In . SVG Version: 2.1.1 Build 8)  -->
  <defs>
    <style>
      .st0 {
        fill: #9e1734;
      }
    </style>
  </defs>
  <path class="st0" d="M12,0H3.5C1.6,0,0,1.6,0,3.5v14.8c0,2,1.6,3.5,3.5,3.5h8.5c2,0,3.5-1.6,3.5-3.5V3.5c0-2-1.6-3.5-3.5-3.5ZM2.3,3.5c0-.7.6-1.2,1.2-1.2h8.5c.7,0,1.2.6,1.2,1.2v14.8c0,.7-.6,1.2-1.2,1.2H3.5c-.7,0-1.2-.6-1.2-1.2V3.5Z"/>
  <rect class="st0" x="5.6" y="16.1" width="4.4" height="2.3" rx="1.2" ry="1.2"/>
</svg>