<?xml version="1.0" encoding="UTF-8"?>
<svg id="Ebene_1" xmlns="http://www.w3.org/2000/svg" version="1.1" viewBox="0 0 16.9 20.7">
  <!-- Generator: Adobe Illustrator 29.7.1, SVG Export Plug-In . SVG Version: 2.1.1 Build 8)  -->
  <defs>
    <style>
      .st0 {
        fill: #9e1734;
      }
    </style>
  </defs>
  <path class="st0" d="M8.5,0C3.8,0,0,3.8,0,8.5s3.4,7.8,6.3,11.2c.5.6,1.3,1,2.2,1s1.6-.4,2.2-1c2.9-3.4,6.3-8.1,6.3-11.2C16.9,3.8,13.1,0,8.5,0ZM8.9,18.2c-.1.2-.3.2-.4.2s-.3,0-.4-.2c-3.6-4.2-5.7-7.8-5.7-9.7,0-3.4,2.8-6.2,6.2-6.2s6.2,2.8,6.2,6.2-2.1,5.5-5.7,9.7Z"/>
  <path class="st0" d="M10.2,8.1c0,1-.8,1.7-1.7,1.7s-1.7-.8-1.7-1.7.8-1.7,1.7-1.7,1.7.8,1.7,1.7Z"/>
</svg>