<?xml version="1.0" encoding="UTF-8"?>
<svg id="Ebene_1" xmlns="http://www.w3.org/2000/svg" version="1.1" viewBox="0 0 17.8 20.5">
  <!-- Generator: Adobe Illustrator 29.7.1, SVG Export Plug-In . SVG Version: 2.1.1 Build 8)  -->
  <defs>
    <style>
      .st0 {
        fill: #9e1734;
      }
    </style>
  </defs>
  <path class="st0" d="M16.9,9.5L4.6.6C3.7,0,2.5-.2,1.6.3.6.8,0,1.8,0,2.9v15.2c0,.5.2,1.1.5,1.5.4.5,1,.8,1.6.8,0,0,0,0,0,0,.6,0,1.3-.3,1.7-.7l4-4.4,2.4,4.7c.2.4.6.6,1,.6s.4,0,.5-.1c.6-.3.8-1,.5-1.5l-2.4-4.7,5.7-.6c1.2-.1,2.1-1.1,2-2.3,0-.7-.4-1.3-.9-1.8ZM7.7,12.2l-5.4,5.8V2.9c0-.3.2-.5.3-.5,0,0,.3-.1.6,0l12.2,8.9-7.7.9Z"/>
</svg>